<svg width="32" height="33" viewBox="0 0 32 33" fill="none" xmlns="http://www.w3.org/2000/svg">
<rect y="0.75" width="32" height="32" rx="8" fill="white"/>
<path d="M15.47 24.55C15.47 25.2127 14.9304 25.7582 14.2735 25.6705C13.52 25.5699 12.7812 25.3744 12.0756 25.0878C10.9995 24.6505 10.0217 24.0097 9.19802 23.2018C8.37438 22.394 7.72103 21.4349 7.27528 20.3793C6.82952 19.3238 6.6001 18.1925 6.6001 17.05C6.6001 15.9075 6.82952 14.7762 7.27528 13.7207C7.72103 12.6651 8.37438 11.706 9.19802 10.8982C10.0217 10.0903 10.9995 9.44947 12.0756 9.01225C12.7812 8.72558 13.52 8.53013 14.2735 8.42952C14.9304 8.3418 15.47 8.88726 15.47 9.55L15.47 24.55Z" fill="url(#paint0_linear_514_63)"/>
<path d="M17.7278 15.0677C17.7278 15.7304 18.2658 16.2724 18.9268 16.2238C19.5744 16.1761 20.2092 16.0898 20.817 15.9663C21.7963 15.7674 22.6862 15.4758 23.4358 15.1082C24.1854 14.7405 24.78 14.3041 25.1856 13.8238C25.5913 13.3435 25.8001 12.8287 25.8001 12.3088C25.8001 11.789 25.5913 11.2742 25.1856 10.7939C24.78 10.3135 24.1854 9.87713 23.4358 9.50952C22.6862 9.14191 21.7963 8.8503 20.817 8.65135C20.2092 8.52789 19.5744 8.44161 18.9268 8.39391C18.2658 8.34523 17.7278 8.88726 17.7278 9.55L17.7278 15.0677Z" fill="url(#paint1_linear_514_63)"/>
<path d="M17.7279 21.7912C17.7279 19.6048 19.5003 17.8324 21.6867 17.8324H21.8413C24.0277 17.8324 25.8001 19.6048 25.8001 21.7912C25.8001 23.9776 24.0277 25.75 21.8413 25.75H21.6867C19.5003 25.75 17.7279 23.9776 17.7279 21.7912Z" fill="url(#paint2_linear_514_63)"/>
<defs>
<linearGradient id="paint0_linear_514_63" x1="6.6001" y1="17.0704" x2="25.8001" y2="17.0704" gradientUnits="userSpaceOnUse">
<stop stop-color="#9C6DFF"/>
<stop offset="1" stop-color="#71DDFF"/>
</linearGradient>
<linearGradient id="paint1_linear_514_63" x1="6.6001" y1="17.0704" x2="25.8001" y2="17.0704" gradientUnits="userSpaceOnUse">
<stop stop-color="#9C6DFF"/>
<stop offset="1" stop-color="#71DDFF"/>
</linearGradient>
<linearGradient id="paint2_linear_514_63" x1="6.6001" y1="17.0704" x2="25.8001" y2="17.0704" gradientUnits="userSpaceOnUse">
<stop stop-color="#9C6DFF"/>
<stop offset="1" stop-color="#71DDFF"/>
</linearGradient>
</defs>
</svg>
